<svg xmlns="http://www.w3.org/2000/svg" viewBox="0 0 450 300">
	<path fill="#CE1126" d="M0 0h450v300H0V0z"/>
	<g fill="#FCD116" stroke="#BD9C08" stroke-width="1.2">
		<circle cx="225" cy="150" r="80"/>
		<polygon points="225,16 210.5,56 237.5,56 "/>
		<polygon points="287.6,33 255.5,60.9 279,74 "/>
		<polygon points="158.3,33.2 165.9,75.1 189.3,61.4 "/>
		<polygon points="333.4,74.1 292.4,85.3 307.9,107.3 "/>
		<polygon points="114.8,73.2 139,108.2 154.6,86.1 "/>
		<polygon points="355.4,128.9 313.7,120.8 317.9,147.4 "/>
		<polygon points="93.4,127.7 131,147.5 134.7,120.7 "/>
	</g>
	<path fill="#003F87" d="M0 165h450v135H0V165z"/>
	<path fill="#FFF" d="M0 257c15 0 30 13 45 13s30-13 45-13 30 13 45 13 30-13 45-13 30 13 45 13 30-13 45-13 30 13 45 13 30-13 45-13 30 13 45 13 30-13 45-13v-21c-15 0-30 13-45 13s-30-13-45-13-30 13-45 13-30-13-45-13-30 13-45 13-30-13-45-13-30 13-45 13-30-13-45-13-30 13-45 13-30-13-45-13v21zM0 214c15 0 30 13 45 13s30-13 45-13 30 13 45 13 30-13 45-13 30 13 45 13 30-13 45-13 30 13 45 13 30-13 45-13 30 13 45 13 30-13 45-13v-21c-15 0-30 13-45 13s-30-13-45-13-30 13-45 13-30-13-45-13-30 13-45 13-30-13-45-13-30 13-45 13-30-13-45-13-30 13-45 13-30-13-45-13v21zM0 171c15 0 30 13 45 13s30-13 45-13 30 13 45 13 30-13 45-13 30 13 45 13 30-13 45-13 30 13 45 13 30-13 45-13 30 13 45 13 30-13 45-13v-21c-15 0-30 13-45 13s-30-13-45-13-30 13-45 13-30-13-45-13-30 13-45 13-30-13-45-13-30 13-45 13-30-13-45-13-30 13-45 13-30-13-45-13v21z"/>
</svg>